<svg width="343" height="204" viewBox="0 0 343 204" fill="none" xmlns="http://www.w3.org/2000/svg">
<rect width="343" height="204" rx="10" fill="#F1F1F5"/>
<path d="M156.456 83.8086V84.79C156.456 85.7935 156.456 86.9653 156.141 88.5107H157.965V89.4482H146.114V88.5107H154.984C155.123 87.8882 155.196 87.3315 155.248 86.8262L147.447 87.1631L147.301 86.2402L155.299 85.9985C155.321 85.5737 155.313 85.1709 155.313 84.79V84.7461H147.608V83.8086H156.456ZM147.506 91.6016V90.708H156.559V93.7109H148.678V95.0879H157.013V96.0107H147.535V92.832H155.416V91.6016H147.506ZM169.815 83.1787V91.1328H168.673V83.1787H169.815ZM159.723 84.8926V83.9551H165.67V87.5439H160.865V89.4336C163.194 89.4263 164.93 89.353 167.047 89.0381L167.179 89.9756C164.989 90.3198 163.209 90.3931 160.807 90.3857H159.752V86.6357H164.527V84.8926H159.723ZM161.056 92.7881V91.8359H169.815V96.1865H168.673V92.7881H161.056ZM178.531 85.4199V86.3574H171.998V85.4199H174.708V83.5596H175.851V85.4199H178.531ZM172.467 90.1953C172.467 88.4668 173.646 87.2437 175.265 87.2363C176.905 87.2437 178.077 88.4668 178.092 90.1953C178.077 91.9458 176.905 93.1763 175.265 93.1836C173.646 93.1763 172.467 91.9458 172.467 90.1953ZM173.492 90.1953C173.492 91.3525 174.232 92.1802 175.265 92.1729C176.305 92.1802 177.066 91.3525 177.066 90.1953C177.066 89.0527 176.305 88.2178 175.265 88.2031C174.232 88.2178 173.492 89.0527 173.492 90.1953ZM179.205 95.542V83.4863H180.289V88.6572H182.018V83.1641H183.116V96.1865H182.018V89.6094H180.289V95.542H179.205ZM189.576 86.665C189.569 89.0234 191.085 91.3965 192.975 92.2607L192.286 93.1982C190.807 92.4365 189.583 90.8838 189.005 89.0308C188.426 90.979 187.203 92.6489 185.724 93.4326L184.977 92.5098C186.888 91.5723 188.397 89.0674 188.404 86.665V84.292H189.576V86.665ZM191.554 88.5547V87.6172H194.645V83.1641H195.787V96.2158H194.645V88.5547H191.554ZM129.027 107.164V120.216H127.87V107.164H129.027ZM118.773 112.716C118.78 109.947 120.157 108.182 122.098 108.175C124.032 108.182 125.431 109.947 125.423 112.716C125.431 115.492 124.032 117.25 122.098 117.242C120.157 117.25 118.78 115.492 118.773 112.716ZM119.886 112.716C119.886 114.833 120.794 116.224 122.098 116.217C123.409 116.224 124.31 114.833 124.31 112.716C124.31 110.599 123.409 109.208 122.098 109.2C120.794 109.208 119.886 110.599 119.886 112.716ZM138.036 108.453V116.92H132.015V108.453H138.036ZM133.143 115.982H136.908V109.376H133.143V115.982ZM140.833 120.216V107.164H141.991V120.216H140.833ZM148.875 111.163C148.883 113.375 150.487 115.624 152.406 116.451L151.761 117.359C150.238 116.671 148.927 115.169 148.319 113.368C147.711 115.279 146.393 116.935 144.906 117.682L144.217 116.773C146.085 115.88 147.711 113.419 147.718 111.163V109.464H144.642V108.512H151.981V109.464H148.875V111.163ZM153.797 120.187V107.164H154.955V120.187H153.797ZM164.535 107.779C166.278 107.772 167.611 108.79 167.86 110.284H170.584V107.164H171.742V114.151H170.584V111.236H167.867C167.64 112.774 166.3 113.8 164.535 113.8C162.55 113.8 161.144 112.569 161.151 110.782C161.144 109.017 162.55 107.772 164.535 107.779ZM162.25 110.782C162.25 111.969 163.194 112.826 164.535 112.833C165.846 112.826 166.791 111.969 166.791 110.782C166.791 109.581 165.846 108.746 164.535 108.761C163.194 108.746 162.25 109.581 162.25 110.782ZM163.348 120.011V114.811H164.505V116.466H170.584V114.811H171.742V120.011H163.348ZM164.505 119.073H170.584V117.389H164.505V119.073ZM185.833 117.608V118.575H173.91V117.608H179.271V115.147H175.404V111.134H183.197V109.083H175.375V108.131H184.325V112.071H176.546V114.195H184.632V115.147H180.399V117.608H185.833ZM197.391 113.434V114.386H188.397V108.38H197.259V109.332H189.54V113.434H197.391ZM186.874 118.414V117.447H198.797V118.414H186.874ZM209.916 107.164V112.54H212.098V113.492H209.916V120.187H208.773V107.164H209.916ZM199.764 110.211V109.259H203.119V107.325H204.261V109.259H207.513V110.211H199.764ZM200.511 114.283C200.504 112.525 201.852 111.295 203.705 111.295C205.543 111.295 206.883 112.525 206.898 114.283C206.883 116.048 205.543 117.271 203.705 117.271C201.852 117.271 200.504 116.048 200.511 114.283ZM201.61 114.283C201.603 115.47 202.489 116.305 203.705 116.29C204.906 116.305 205.785 115.47 205.799 114.283C205.785 113.104 204.906 112.254 203.705 112.262C202.489 112.254 201.603 113.104 201.61 114.283ZM223.568 107.164V120.187H222.411V107.164H223.568ZM212.962 116.803C216.485 115.133 218.287 112.635 218.543 109.522H213.563V108.585H219.715C219.701 112.328 217.958 115.646 213.592 117.74L212.962 116.803Z" fill="#767676"/>
</svg>
