<svg width="16" height="16" viewBox="0 0 16 16" fill="none" xmlns="http://www.w3.org/2000/svg">
<path d="M9.66683 2.66602H6.3335L4.66683 4.66602H2.66683C2.31321 4.66602 1.97407 4.80649 1.72402 5.05654C1.47397 5.30659 1.3335 5.64573 1.3335 5.99935V11.9993C1.3335 12.353 1.47397 12.6921 1.72402 12.9422C1.97407 13.1922 2.31321 13.3327 2.66683 13.3327H13.3335C13.6871 13.3327 14.0263 13.1922 14.2763 12.9422C14.5264 12.6921 14.6668 12.353 14.6668 11.9993V5.99935C14.6668 5.64573 14.5264 5.30659 14.2763 5.05654C14.0263 4.80649 13.6871 4.66602 13.3335 4.66602H11.3335L9.66683 2.66602Z" stroke="#008777" stroke-linecap="round" stroke-linejoin="round"/>
<path d="M8 10.666C9.10457 10.666 10 9.77059 10 8.66602C10 7.56145 9.10457 6.66602 8 6.66602C6.89543 6.66602 6 7.56145 6 8.66602C6 9.77059 6.89543 10.666 8 10.666Z" stroke="#008777" stroke-linecap="round" stroke-linejoin="round"/>
</svg>
