<svg width="89" height="89" viewBox="0 0 89 89" fill="none" xmlns="http://www.w3.org/2000/svg">
<path d="M44.5 87.9139C68.7973 87.9139 88.5 68.3488 88.5 44.2069C88.5 20.0651 68.7973 0.5 44.5 0.5C20.2027 0.5 0.5 20.0651 0.5 44.2069C0.5 68.3488 20.2027 87.9139 44.5 87.9139Z" fill="white" stroke="white"/>
<path d="M10.9589 44.4004C10.9589 44.4004 10.9504 56.1191 10.9588 71.7222C10.9598 73.6135 25.2387 88.0004 46.1223 88.0004C65.276 88.0004 81.9402 69.8986 81.9402 66.1333V44.4004L46.4495 25.5059L10.9589 44.4004Z" fill="#BFD0FD"/>
<path d="M31.4158 18.0672L19.3009 28.0742C19.1481 28.2003 19.2579 28.4475 19.4546 28.4205L35.0635 26.2812C35.1 26.2762 35.1344 26.2611 35.1627 26.2375L47.1054 16.306C47.2572 16.1797 47.148 15.9338 46.9518 15.96L31.5151 18.0238C31.4786 18.0287 31.4442 18.0437 31.4158 18.0672Z" fill="#111111"/>
<path d="M27.2721 34.1078L24.8121 29.1861C24.7419 29.0456 24.8315 28.8785 24.9875 28.859L35.6375 27.528C35.6821 27.5224 35.724 27.5039 35.7579 27.4747L43.8812 20.4941C43.9974 20.3943 44.1777 20.4351 44.24 20.5753L46.5014 25.6677C46.5362 25.7459 46.5234 25.8378 46.4691 25.9037C40.2719 33.4305 31.3016 34.5962 27.45 34.2323C27.3721 34.2249 27.307 34.1777 27.2721 34.1078Z" fill="#111111"/>
<path d="M21.7168 30.0352L23.7722 34.6635" stroke="#111111" stroke-width="1.18344" stroke-linecap="round"/>
<ellipse cx="1.18329" cy="1.17791" rx="1.18329" ry="1.17791" transform="matrix(0.915949 -0.401295 0.405862 0.913934 22.5391 34.8193)" fill="#111111"/>
<path d="M23.8701 35.9573C23.8855 35.5651 24.3465 35.3631 24.6486 35.6162L27.254 37.8002C27.523 38.0257 27.4625 38.4534 27.1415 38.594L24.4031 39.7937C24.0822 39.9343 23.7234 39.6904 23.7371 39.341L23.8701 35.9573Z" fill="#111111"/>
<path d="M36.5625 52.1484C39.7968 56.2168 51.3381 56.0421 55.2581 52.1484" stroke="#111111" stroke-width="2.42427" stroke-linecap="round" stroke-linejoin="round"/>
<ellipse cx="38.0477" cy="44.1622" rx="2.42662" ry="2.41028" fill="#111111"/>
<ellipse cx="53.5809" cy="44.1622" rx="2.42662" ry="2.41028" fill="#111111"/>
</svg>
