<svg width="25" height="24" viewBox="0 0 25 24" fill="none" xmlns="http://www.w3.org/2000/svg">
<mask id="path-1-inside-1_3487_3041" fill="white">
<path fill-rule="evenodd" clip-rule="evenodd" d="M10.25 5C10.25 3.89543 11.1454 3 12.25 3H12.75C13.8546 3 14.75 3.89543 14.75 5V5.63409C15.0134 5.7272 15.2694 5.8362 15.5166 5.95993L15.9373 5.53921C16.7184 4.75816 17.9847 4.75817 18.7658 5.53921L19.1193 5.89277C19.9004 6.67382 19.9004 7.94015 19.1193 8.72119L18.6427 9.19784C18.7249 9.37779 18.7995 9.56198 18.8659 9.75H19.5C20.6046 9.75 21.5 10.6454 21.5 11.75V12.25C21.5 13.3546 20.6046 14.25 19.5 14.25H18.8659C18.7928 14.4569 18.7099 14.6592 18.6177 14.8563L19.1202 15.3588C19.9013 16.1399 19.9013 17.4062 19.1202 18.1872L18.7667 18.5408C17.9856 19.3218 16.7193 19.3218 15.9383 18.5408L15.4637 18.0663C15.2329 18.1792 14.9947 18.2794 14.75 18.3659V19C14.75 20.1046 13.8546 21 12.75 21H12.25C11.1454 21 10.25 20.1046 10.25 19V18.3659C10.0602 18.2988 9.87436 18.2235 9.69281 18.1404L9.21247 18.6207C8.43142 19.4018 7.16509 19.4018 6.38404 18.6207L6.03049 18.2672C5.24944 17.4861 5.24944 16.2198 6.03049 15.4388L6.45749 15.0117C6.33476 14.766 6.22659 14.5117 6.13409 14.25H5.5C4.39543 14.25 3.5 13.3546 3.5 12.25V11.75C3.5 10.6454 4.39543 9.75 5.5 9.75H6.13409C6.22061 9.5052 6.32086 9.26687 6.4339 9.03596L6.03921 8.64126C5.25816 7.86022 5.25817 6.59389 6.03921 5.81284L6.39277 5.45928C7.17382 4.67824 8.44015 4.67824 9.22119 5.45928L9.64408 5.88217C9.84105 5.79005 10.0432 5.70718 10.25 5.63409V5Z"/>
</mask>
<path d="M14.75 5.63409H13.25V6.69485L14.2501 7.04835L14.75 5.63409ZM15.5166 5.95993L14.8454 7.30135L15.8125 7.78534L16.5773 7.02059L15.5166 5.95993ZM15.9373 5.53921L16.998 6.59987V6.59987L15.9373 5.53921ZM18.7658 5.53921L17.7051 6.59987L17.7051 6.59987L18.7658 5.53921ZM19.1193 5.89277L20.18 4.83211L20.18 4.83211L19.1193 5.89277ZM19.1193 8.72119L20.18 9.78185L19.1193 8.72119ZM18.6427 9.19784L17.582 8.13718L16.8454 8.87376L17.2784 9.82122L18.6427 9.19784ZM18.8659 9.75L17.4517 10.2499L17.8052 11.25H18.8659V9.75ZM18.8659 14.25V12.75H17.8052L17.4517 13.7501L18.8659 14.25ZM18.6177 14.8563L17.2589 14.2208L16.8134 15.1733L17.557 15.9169L18.6177 14.8563ZM19.1202 18.1872L18.0596 17.1266L18.0596 17.1266L19.1202 18.1872ZM18.7667 18.5408L19.8273 19.6015L19.8274 19.6015L18.7667 18.5408ZM15.4637 18.0663L16.5244 17.0056L15.7667 16.2479L14.8043 16.719L15.4637 18.0663ZM14.75 18.3659L14.2501 16.9517L13.25 17.3051V18.3659H14.75ZM10.25 18.3659H11.75V17.3051L10.7499 16.9517L10.25 18.3659ZM9.69281 18.1404L10.3173 16.7766L9.36938 16.3425L8.63215 17.0797L9.69281 18.1404ZM9.21247 18.6207L8.15181 17.5601L8.15181 17.5601L9.21247 18.6207ZM6.38404 18.6207L7.4447 17.5601L7.4447 17.5601L6.38404 18.6207ZM6.03049 18.2672L4.96983 19.3278L4.96983 19.3278L6.03049 18.2672ZM6.03049 15.4388L7.09115 16.4994V16.4994L6.03049 15.4388ZM6.45749 15.0117L7.51815 16.0724L8.28224 15.3083L7.79946 14.3416L6.45749 15.0117ZM6.13409 14.25L7.54835 13.7501L7.19485 12.75H6.13409V14.25ZM6.13409 9.75V11.25H7.19485L7.54835 10.2499L6.13409 9.75ZM6.4339 9.03596L7.78113 9.69548L8.2523 8.73303L7.49457 7.9753L6.4339 9.03596ZM6.03921 8.64126L4.97855 9.70192L4.97855 9.70192L6.03921 8.64126ZM6.03921 5.81284L7.09987 6.8735V6.8735L6.03921 5.81284ZM6.39277 5.45928L7.45343 6.51994H7.45343L6.39277 5.45928ZM9.22119 5.45928L10.2819 4.39862L10.2819 4.39862L9.22119 5.45928ZM9.64408 5.88217L8.58342 6.94283L9.32695 7.68636L10.2795 7.24094L9.64408 5.88217ZM10.25 5.63409L10.7499 7.04835L11.75 6.69485V5.63409H10.25ZM12.25 1.5C10.317 1.5 8.75 3.067 8.75 5H11.75C11.75 4.72386 11.9739 4.5 12.25 4.5V1.5ZM12.75 1.5H12.25V4.5H12.75V1.5ZM16.25 5C16.25 3.067 14.683 1.5 12.75 1.5V4.5C13.0261 4.5 13.25 4.72386 13.25 5H16.25ZM16.25 5.63409V5H13.25V5.63409H16.25ZM16.1879 4.61851C15.8855 4.46717 15.5723 4.33379 15.2499 4.21983L14.2501 7.04835C14.4546 7.1206 14.6533 7.20522 14.8454 7.30135L16.1879 4.61851ZM14.8767 4.47855L14.456 4.89927L16.5773 7.02059L16.998 6.59987L14.8767 4.47855ZM19.8264 4.47855C18.4596 3.11172 16.2435 3.11172 14.8767 4.47855L16.998 6.59987C17.1933 6.40461 17.5099 6.40461 17.7051 6.59987L19.8264 4.47855ZM20.18 4.83211L19.8264 4.47855L17.7051 6.59987L18.0587 6.95343L20.18 4.83211ZM20.18 9.78185C21.5468 8.41502 21.5468 6.19894 20.18 4.83211L18.0587 6.95343C18.2539 7.14869 18.2539 7.46527 18.0587 7.66053L20.18 9.78185ZM19.7033 10.2585L20.18 9.78185L18.0587 7.66053L17.582 8.13718L19.7033 10.2585ZM20.2802 9.25013C20.1988 9.02001 20.1076 8.79461 20.007 8.57445L17.2784 9.82122C17.3422 9.96097 17.4001 10.104 17.4517 10.2499L20.2802 9.25013ZM19.5 8.25H18.8659V11.25H19.5V8.25ZM23 11.75C23 9.817 21.433 8.25 19.5 8.25V11.25C19.7761 11.25 20 11.4739 20 11.75H23ZM23 12.25V11.75H20V12.25H23ZM19.5 15.75C21.433 15.75 23 14.183 23 12.25H20C20 12.5261 19.7761 12.75 19.5 12.75V15.75ZM18.8659 15.75H19.5V12.75H18.8659V15.75ZM19.9764 15.4917C20.0892 15.2506 20.1907 15.0031 20.2802 14.7499L17.4517 13.7501C17.3949 13.9107 17.3305 14.0677 17.2589 14.2208L19.9764 15.4917ZM20.1809 14.2982L19.6783 13.7956L17.557 15.9169L18.0596 16.4195L20.1809 14.2982ZM20.1809 19.2479C21.5477 17.8811 21.5477 15.665 20.1809 14.2982L18.0596 16.4195C18.2548 16.6147 18.2548 16.9313 18.0596 17.1266L20.1809 19.2479ZM19.8274 19.6015L20.1809 19.2479L18.0596 17.1266L17.706 17.4801L19.8274 19.6015ZM14.8776 19.6015C16.2444 20.9683 18.4605 20.9683 19.8273 19.6015L17.706 17.4801C17.5108 17.6754 17.1942 17.6754 16.9989 17.4801L14.8776 19.6015ZM14.4031 19.1269L14.8776 19.6015L16.9989 17.4801L16.5244 17.0056L14.4031 19.1269ZM15.2499 19.7802C15.5494 19.6743 15.8408 19.5517 16.1232 19.4135L14.8043 16.719C14.625 16.8068 14.44 16.8845 14.2501 16.9517L15.2499 19.7802ZM16.25 19V18.3659H13.25V19H16.25ZM12.75 22.5C14.683 22.5 16.25 20.933 16.25 19H13.25C13.25 19.2761 13.0261 19.5 12.75 19.5V22.5ZM12.25 22.5H12.75V19.5H12.25V22.5ZM8.75 19C8.75 20.933 10.317 22.5 12.25 22.5V19.5C11.9739 19.5 11.75 19.2761 11.75 19H8.75ZM8.75 18.3659V19H11.75V18.3659H8.75ZM9.06831 19.5042C9.2904 19.6059 9.51786 19.6981 9.75013 19.7802L10.7499 16.9517C10.6026 16.8996 10.4583 16.8411 10.3173 16.7766L9.06831 19.5042ZM10.2731 19.6814L10.7535 19.201L8.63215 17.0797L8.15181 17.5601L10.2731 19.6814ZM5.32338 19.6814C6.69022 21.0482 8.90629 21.0482 10.2731 19.6814L8.15181 17.5601C7.95655 17.7553 7.63996 17.7553 7.4447 17.5601L5.32338 19.6814ZM4.96983 19.3278L5.32338 19.6814L7.4447 17.5601L7.09115 17.2065L4.96983 19.3278ZM4.96983 14.3781C3.60299 15.7449 3.60299 17.961 4.96983 19.3278L7.09115 17.2065C6.89589 17.0113 6.89589 16.6947 7.09115 16.4994L4.96983 14.3781ZM5.39683 13.9511L4.96983 14.3781L7.09115 16.4994L7.51815 16.0724L5.39683 13.9511ZM4.71983 14.7499C4.83304 15.0702 4.96542 15.3813 5.11553 15.6819L7.79946 14.3416C7.70411 14.1506 7.62013 13.9532 7.54835 13.7501L4.71983 14.7499ZM6.13409 12.75H5.5V15.75H6.13409V12.75ZM5.5 12.75C5.22386 12.75 5 12.5261 5 12.25H2C2 14.183 3.567 15.75 5.5 15.75V12.75ZM5 12.25V11.75H2V12.25H5ZM5 11.75C5 11.4739 5.22386 11.25 5.5 11.25V8.25C3.567 8.25 2 9.817 2 11.75H5ZM5.5 11.25H6.13409V8.25H5.5V11.25ZM5.08668 8.37643C4.9484 8.65888 4.82573 8.95049 4.71983 9.25013L7.54835 10.2499C7.61549 10.0599 7.69332 9.87487 7.78113 9.69548L5.08668 8.37643ZM4.97855 9.70192L5.37324 10.0966L7.49457 7.9753L7.09987 7.5806L4.97855 9.70192ZM4.97855 4.75218C3.61172 6.11901 3.61172 8.33509 4.97855 9.70192L7.09987 7.5806C6.90461 7.38534 6.90461 7.06876 7.09987 6.8735L4.97855 4.75218ZM5.33211 4.39862L4.97855 4.75218L7.09987 6.8735L7.45343 6.51994L5.33211 4.39862ZM10.2819 4.39862C8.91502 3.03179 6.69894 3.03179 5.33211 4.39862L7.45343 6.51994C7.64869 6.32468 7.96527 6.32468 8.16053 6.51994L10.2819 4.39862ZM10.7047 4.82151L10.2819 4.39862L8.16053 6.51994L8.58342 6.94283L10.7047 4.82151ZM9.75013 4.21983C9.49703 4.30929 9.24965 4.41071 9.00868 4.52339L10.2795 7.24094C10.4325 7.1694 10.5894 7.10507 10.7499 7.04835L9.75013 4.21983ZM8.75 5V5.63409H11.75V5H8.75Z" fill="#505050" mask="url(#path-1-inside-1_3487_3041)"/>
<circle cx="12.5" cy="12" r="3.25" stroke="#505050" stroke-width="1.5"/>
</svg>
