<svg width="300" height="300" viewBox="0 0 300 300" fill="none" xmlns="http://www.w3.org/2000/svg">
<rect x="124.37" y="235" width="10" height="32" rx="1" fill="#111111"/>
<path d="M142.655 274.5C143.602 274.5 144.378 273.73 144.289 272.787C143.933 269.041 142.42 265.521 139.976 262.833C137.163 259.738 133.348 258 129.37 258C125.392 258 121.576 259.738 118.763 262.833C116.32 265.521 114.806 269.041 114.451 272.787C114.361 273.73 115.138 274.5 116.085 274.5L129.37 274.5H142.655Z" fill="#111111"/>
<rect x="165.37" y="235" width="10" height="32" rx="1" fill="#111111"/>
<path d="M182.655 274.5C183.602 274.5 184.378 273.73 184.289 272.787C183.933 269.041 182.42 265.521 179.976 262.833C177.163 259.738 173.348 258 169.37 258C165.392 258 161.576 259.738 158.763 262.833C156.32 265.521 154.806 269.041 154.451 272.787C154.361 273.73 155.138 274.5 156.085 274.5L169.37 274.5H182.655Z" fill="#111111"/>
<path d="M91.3699 145V237H209.37V145L150.37 117L91.3699 145Z" fill="#BFD0FD"/>
<path d="M133.602 165.704C138.892 174.813 152.414 187.565 164.182 165.704" stroke="black" stroke-width="4.02369" stroke-linecap="round" stroke-linejoin="round"/>
<circle cx="136.024" cy="153.024" r="4.02369" fill="black"/>
<circle cx="161.779" cy="153.024" r="4.02369" fill="black"/>
<path d="M130.44 83.5629L111.611 101.684C111.374 101.912 111.584 102.307 111.906 102.239L137.466 96.8009C137.526 96.7882 137.581 96.7587 137.626 96.716L156.179 78.7416C156.414 78.5136 156.205 78.1197 155.885 78.1868L130.6 83.4785C130.54 83.4911 130.485 83.5203 130.44 83.5629Z" fill="#111111"/>
<path d="M125.526 110.769L120.861 102.867C120.729 102.643 120.857 102.354 121.113 102.303L138.564 98.8078C138.637 98.7931 138.705 98.7571 138.758 98.7042L151.347 86.1064C151.527 85.9262 151.83 85.9716 151.95 86.1966L156.307 94.4068C156.373 94.532 156.363 94.6857 156.282 94.8017C146.943 108.079 132.248 111.097 125.834 110.954C125.705 110.951 125.592 110.881 125.526 110.769Z" fill="#111111"/>
<path d="M115.847 104.656L119.807 112.116" stroke="#111111" stroke-width="1.96421" stroke-linecap="round"/>
<circle cx="120.446" cy="113.337" r="1.96421" transform="rotate(-27.9561 120.446 113.337)" fill="#111111"/>
<path d="M120.125 114.257C120.103 113.603 120.843 113.21 121.372 113.595L125.95 116.922C126.42 117.263 126.37 117.979 125.857 118.251L121.468 120.58C120.955 120.853 120.334 120.493 120.315 119.913L120.125 114.257Z" fill="#111111"/>
<path d="M91.3699 167C76.8697 149.754 53.3274 110.695 78.3838 90L67.3955 81" stroke="#111111" stroke-width="4.8" stroke-linecap="round" stroke-linejoin="round"/>
<path d="M208.37 166.21C227.25 142.728 253.853 92.0686 211.027 73.4546L209.969 63.6734" stroke="#111111" stroke-width="4.8" stroke-linecap="round" stroke-linejoin="round"/>
<path d="M157.37 48L163.8 46.0875L165.71 35.2546L159.801 34.2127L157.37 48Z" fill="#5570FF"/>
<path d="M82.3699 56L88.4524 56.0571L89.4943 50.1482L83.5854 49.1063L82.3699 56Z" fill="#5570FF"/>
<path d="M209.37 100L215.452 100.057L216.494 94.1482L210.585 93.1063L209.37 100Z" fill="#C4D4FF"/>
<path d="M204.37 130L198.171 128.746L196.708 116.836L202.664 116.104L204.37 130Z" fill="#5570FF"/>
<path d="M177.37 98L183.452 98.0571L184.494 92.1482L178.585 91.1063L177.37 98Z" fill="#00CBB2"/>
<path d="M210.37 42L216.452 42.0571L217.494 36.1482L211.585 35.1063L210.37 42Z" fill="#C4D4FF"/>
<path d="M118.37 72L124.452 72.0571L125.494 66.1482L119.585 65.1063L118.37 72Z" fill="#5438FF"/>
<path d="M178.37 117L172.293 116.739L171.562 110.783L177.517 110.052L178.37 117Z" fill="#5438FF"/>
<path d="M89.3699 109L95.9733 106.103L98.578 91.3305L92.6692 90.2887L89.3699 109Z" fill="#C4D4FF"/>
<path d="M49.3699 102L52.6415 96.872L48.1826 92.8572L44.1679 97.3161L49.3699 102Z" fill="#5570FF"/>
<path d="M251.37 99L248.279 93.7609L252.875 89.9042L256.732 94.5005L251.37 99Z" fill="#C4D4FF"/>
<path d="M106.37 130L109.642 124.872L105.183 120.857L101.168 125.316L106.37 130Z" fill="#5570FF"/>
<path d="M59.3699 147L62.6415 141.872L58.1826 137.857L54.1679 142.316L59.3699 147Z" fill="#5570FF"/>
<path d="M241.37 144L238.279 138.761L242.875 134.904L246.732 139.5L241.37 144Z" fill="#5570FF"/>
<path d="M62.3699 69L63.4121 61.8646L51.5218 51.1585L47.507 55.6174L62.3699 69Z" fill="#00CBB2"/>
<path d="M54.3699 125L49.9611 119.294L34.0001 120.41L34.4186 126.395L54.3699 125Z" fill="#00CBB2"/>
<path d="M246.37 123L250.975 117.451L266.887 119.123L266.26 125.091L246.37 123Z" fill="#00CBB2"/>
<path d="M232.37 74L231.577 66.8326L243.834 56.548L247.691 61.1442L232.37 74Z" fill="#00CBB2"/>
<path d="M114.37 27L111.748 39.772L117.515 41.4259L121.099 28.9295L114.37 27Z" fill="#00CBB2"/>
<path d="M184.37 52L186.545 64.8558L180.723 66.3073L177.578 53.6935L184.37 52Z" fill="#00CBB2"/>
</svg>
