<svg width="24" height="24" viewBox="0 0 24 24" fill="none" xmlns="http://www.w3.org/2000/svg">
<mask id="path-1-inside-1_3243_70532" fill="white">
<path fill-rule="evenodd" clip-rule="evenodd" d="M9.75 5C9.75 3.89543 10.6454 3 11.75 3H12.25C13.3546 3 14.25 3.89543 14.25 5V5.63409C14.5134 5.7272 14.7694 5.8362 15.0166 5.95993L15.4373 5.53921C16.2184 4.75816 17.4847 4.75817 18.2658 5.53921L18.6193 5.89277C19.4004 6.67382 19.4004 7.94015 18.6193 8.72119L18.1427 9.19784C18.2249 9.37779 18.2995 9.56198 18.3659 9.75H19C20.1046 9.75 21 10.6454 21 11.75V12.25C21 13.3546 20.1046 14.25 19 14.25H18.3659C18.2928 14.4569 18.2099 14.6592 18.1177 14.8563L18.6202 15.3588C19.4013 16.1399 19.4013 17.4062 18.6202 18.1872L18.2667 18.5408C17.4856 19.3218 16.2193 19.3218 15.4383 18.5408L14.9637 18.0663C14.7329 18.1792 14.4947 18.2794 14.25 18.3659V19C14.25 20.1046 13.3546 21 12.25 21H11.75C10.6454 21 9.75 20.1046 9.75 19V18.3659C9.56023 18.2988 9.37436 18.2235 9.19281 18.1404L8.71247 18.6207C7.93142 19.4018 6.66509 19.4018 5.88404 18.6207L5.53049 18.2672C4.74944 17.4861 4.74944 16.2198 5.53049 15.4388L5.95749 15.0117C5.83476 14.766 5.72659 14.5117 5.63409 14.25H5C3.89543 14.25 3 13.3546 3 12.25V11.75C3 10.6454 3.89543 9.75 5 9.75H5.63409C5.72061 9.5052 5.82086 9.26687 5.9339 9.03596L5.53921 8.64126C4.75816 7.86022 4.75817 6.59389 5.53921 5.81284L5.89277 5.45928C6.67382 4.67824 7.94015 4.67824 8.72119 5.45928L9.14408 5.88217C9.34105 5.79005 9.54321 5.70718 9.75 5.63409V5Z"/>
</mask>
<path fill-rule="evenodd" clip-rule="evenodd" d="M9.75 5C9.75 3.89543 10.6454 3 11.75 3H12.25C13.3546 3 14.25 3.89543 14.25 5V5.63409C14.5134 5.7272 14.7694 5.8362 15.0166 5.95993L15.4373 5.53921C16.2184 4.75816 17.4847 4.75817 18.2658 5.53921L18.6193 5.89277C19.4004 6.67382 19.4004 7.94015 18.6193 8.72119L18.1427 9.19784C18.2249 9.37779 18.2995 9.56198 18.3659 9.75H19C20.1046 9.75 21 10.6454 21 11.75V12.25C21 13.3546 20.1046 14.25 19 14.25H18.3659C18.2928 14.4569 18.2099 14.6592 18.1177 14.8563L18.6202 15.3588C19.4013 16.1399 19.4013 17.4062 18.6202 18.1872L18.2667 18.5408C17.4856 19.3218 16.2193 19.3218 15.4383 18.5408L14.9637 18.0663C14.7329 18.1792 14.4947 18.2794 14.25 18.3659V19C14.25 20.1046 13.3546 21 12.25 21H11.75C10.6454 21 9.75 20.1046 9.75 19V18.3659C9.56023 18.2988 9.37436 18.2235 9.19281 18.1404L8.71247 18.6207C7.93142 19.4018 6.66509 19.4018 5.88404 18.6207L5.53049 18.2672C4.74944 17.4861 4.74944 16.2198 5.53049 15.4388L5.95749 15.0117C5.83476 14.766 5.72659 14.5117 5.63409 14.25H5C3.89543 14.25 3 13.3546 3 12.25V11.75C3 10.6454 3.89543 9.75 5 9.75H5.63409C5.72061 9.5052 5.82086 9.26687 5.9339 9.03596L5.53921 8.64126C4.75816 7.86022 4.75817 6.59389 5.53921 5.81284L5.89277 5.45928C6.67382 4.67824 7.94015 4.67824 8.72119 5.45928L9.14408 5.88217C9.34105 5.79005 9.54321 5.70718 9.75 5.63409V5Z" fill="#505050"/>
<path d="M14.25 5.63409H12.75V6.69485L13.7501 7.04835L14.25 5.63409ZM15.0166 5.95993L14.3454 7.30135L15.3125 7.78534L16.0773 7.02059L15.0166 5.95993ZM15.4373 5.53921L16.498 6.59987V6.59987L15.4373 5.53921ZM18.2658 5.53921L17.2051 6.59987L17.2051 6.59987L18.2658 5.53921ZM18.6193 5.89277L19.68 4.83211L19.68 4.83211L18.6193 5.89277ZM18.6193 8.72119L19.68 9.78185L18.6193 8.72119ZM18.1427 9.19784L17.082 8.13718L16.3454 8.87376L16.7784 9.82122L18.1427 9.19784ZM18.3659 9.75L16.9517 10.2499L17.3052 11.25H18.3659V9.75ZM18.3659 14.25V12.75H17.3052L16.9517 13.7501L18.3659 14.25ZM18.1177 14.8563L16.7589 14.2208L16.3134 15.1733L17.057 15.9169L18.1177 14.8563ZM18.6202 18.1872L17.5596 17.1266L17.5596 17.1266L18.6202 18.1872ZM18.2667 18.5408L19.3273 19.6015L19.3274 19.6015L18.2667 18.5408ZM14.9637 18.0663L16.0244 17.0056L15.2667 16.2479L14.3043 16.719L14.9637 18.0663ZM14.25 18.3659L13.7501 16.9517L12.75 17.3051V18.3659H14.25ZM9.75 18.3659H11.25V17.3051L10.2499 16.9517L9.75 18.3659ZM9.19281 18.1404L9.81732 16.7766L8.86938 16.3425L8.13215 17.0797L9.19281 18.1404ZM8.71247 18.6207L7.65181 17.5601L7.65181 17.5601L8.71247 18.6207ZM5.88404 18.6207L6.9447 17.5601L6.9447 17.5601L5.88404 18.6207ZM5.53049 18.2672L4.46983 19.3278L4.46983 19.3278L5.53049 18.2672ZM5.53049 15.4388L6.59115 16.4994V16.4994L5.53049 15.4388ZM5.95749 15.0117L7.01815 16.0724L7.78224 15.3083L7.29946 14.3416L5.95749 15.0117ZM5.63409 14.25L7.04835 13.7501L6.69485 12.75H5.63409V14.25ZM5.63409 9.75V11.25H6.69485L7.04835 10.2499L5.63409 9.75ZM5.9339 9.03596L7.28113 9.69548L7.7523 8.73303L6.99457 7.9753L5.9339 9.03596ZM5.53921 8.64126L4.47855 9.70192L4.47855 9.70192L5.53921 8.64126ZM5.53921 5.81284L6.59987 6.8735V6.8735L5.53921 5.81284ZM5.89277 5.45928L6.95343 6.51994H6.95343L5.89277 5.45928ZM8.72119 5.45928L9.78185 4.39862L9.78185 4.39862L8.72119 5.45928ZM9.14408 5.88217L8.08342 6.94283L8.82695 7.68636L9.77947 7.24094L9.14408 5.88217ZM9.75 5.63409L10.2499 7.04835L11.25 6.69485V5.63409H9.75ZM11.75 1.5C9.817 1.5 8.25 3.067 8.25 5H11.25C11.25 4.72386 11.4739 4.5 11.75 4.5V1.5ZM12.25 1.5H11.75V4.5H12.25V1.5ZM15.75 5C15.75 3.067 14.183 1.5 12.25 1.5V4.5C12.5261 4.5 12.75 4.72386 12.75 5H15.75ZM15.75 5.63409V5H12.75V5.63409H15.75ZM15.6879 4.61851C15.3855 4.46717 15.0723 4.33379 14.7499 4.21983L13.7501 7.04835C13.9546 7.1206 14.1533 7.20522 14.3454 7.30135L15.6879 4.61851ZM14.3767 4.47855L13.956 4.89927L16.0773 7.02059L16.498 6.59987L14.3767 4.47855ZM19.3264 4.47855C17.9596 3.11172 15.7435 3.11172 14.3767 4.47855L16.498 6.59987C16.6933 6.40461 17.0099 6.40461 17.2051 6.59987L19.3264 4.47855ZM19.68 4.83211L19.3264 4.47855L17.2051 6.59987L17.5587 6.95343L19.68 4.83211ZM19.68 9.78185C21.0468 8.41502 21.0468 6.19894 19.68 4.83211L17.5587 6.95343C17.7539 7.14869 17.7539 7.46527 17.5587 7.66053L19.68 9.78185ZM19.2033 10.2585L19.68 9.78185L17.5587 7.66053L17.082 8.13718L19.2033 10.2585ZM19.7802 9.25013C19.6988 9.02001 19.6076 8.79461 19.507 8.57445L16.7784 9.82122C16.8422 9.96097 16.9001 10.104 16.9517 10.2499L19.7802 9.25013ZM19 8.25H18.3659V11.25H19V8.25ZM22.5 11.75C22.5 9.817 20.933 8.25 19 8.25V11.25C19.2761 11.25 19.5 11.4739 19.5 11.75H22.5ZM22.5 12.25V11.75H19.5V12.25H22.5ZM19 15.75C20.933 15.75 22.5 14.183 22.5 12.25H19.5C19.5 12.5261 19.2761 12.75 19 12.75V15.75ZM18.3659 15.75H19V12.75H18.3659V15.75ZM19.4764 15.4917C19.5892 15.2506 19.6907 15.0031 19.7802 14.7499L16.9517 13.7501C16.8949 13.9107 16.8305 14.0677 16.7589 14.2208L19.4764 15.4917ZM19.6809 14.2982L19.1783 13.7956L17.057 15.9169L17.5596 16.4195L19.6809 14.2982ZM19.6809 19.2479C21.0477 17.8811 21.0477 15.665 19.6809 14.2982L17.5596 16.4195C17.7548 16.6147 17.7548 16.9313 17.5596 17.1266L19.6809 19.2479ZM19.3274 19.6015L19.6809 19.2479L17.5596 17.1266L17.206 17.4801L19.3274 19.6015ZM14.3776 19.6015C15.7444 20.9683 17.9605 20.9683 19.3273 19.6015L17.206 17.4801C17.0108 17.6754 16.6942 17.6754 16.4989 17.4801L14.3776 19.6015ZM13.9031 19.1269L14.3776 19.6015L16.4989 17.4801L16.0244 17.0056L13.9031 19.1269ZM14.7499 19.7802C15.0494 19.6743 15.3408 19.5517 15.6232 19.4135L14.3043 16.719C14.125 16.8068 13.94 16.8845 13.7501 16.9517L14.7499 19.7802ZM15.75 19V18.3659H12.75V19H15.75ZM12.25 22.5C14.183 22.5 15.75 20.933 15.75 19H12.75C12.75 19.2761 12.5261 19.5 12.25 19.5V22.5ZM11.75 22.5H12.25V19.5H11.75V22.5ZM8.25 19C8.25 20.933 9.817 22.5 11.75 22.5V19.5C11.4739 19.5 11.25 19.2761 11.25 19H8.25ZM8.25 18.3659V19H11.25V18.3659H8.25ZM8.56831 19.5042C8.7904 19.6059 9.01786 19.6981 9.25013 19.7802L10.2499 16.9517C10.1026 16.8996 9.95831 16.8411 9.81732 16.7766L8.56831 19.5042ZM9.77313 19.6814L10.2535 19.201L8.13215 17.0797L7.65181 17.5601L9.77313 19.6814ZM4.82338 19.6814C6.19022 21.0482 8.40629 21.0482 9.77313 19.6814L7.65181 17.5601C7.45655 17.7553 7.13996 17.7553 6.9447 17.5601L4.82338 19.6814ZM4.46983 19.3278L4.82338 19.6814L6.9447 17.5601L6.59115 17.2065L4.46983 19.3278ZM4.46983 14.3781C3.10299 15.7449 3.10299 17.961 4.46983 19.3278L6.59115 17.2065C6.39589 17.0113 6.39589 16.6947 6.59115 16.4994L4.46983 14.3781ZM4.89683 13.9511L4.46983 14.3781L6.59115 16.4994L7.01815 16.0724L4.89683 13.9511ZM4.21983 14.7499C4.33304 15.0702 4.46542 15.3813 4.61553 15.6819L7.29946 14.3416C7.20411 14.1506 7.12013 13.9532 7.04835 13.7501L4.21983 14.7499ZM5.63409 12.75H5V15.75H5.63409V12.75ZM5 12.75C4.72386 12.75 4.5 12.5261 4.5 12.25H1.5C1.5 14.183 3.067 15.75 5 15.75V12.75ZM4.5 12.25V11.75H1.5V12.25H4.5ZM4.5 11.75C4.5 11.4739 4.72386 11.25 5 11.25V8.25C3.067 8.25 1.5 9.817 1.5 11.75H4.5ZM5 11.25H5.63409V8.25H5V11.25ZM4.58668 8.37643C4.4484 8.65888 4.32573 8.95049 4.21983 9.25013L7.04835 10.2499C7.11549 10.0599 7.19332 9.87487 7.28113 9.69548L4.58668 8.37643ZM4.47855 9.70192L4.87324 10.0966L6.99457 7.9753L6.59987 7.5806L4.47855 9.70192ZM4.47855 4.75218C3.11172 6.11901 3.11172 8.33509 4.47855 9.70192L6.59987 7.5806C6.40461 7.38534 6.40461 7.06876 6.59987 6.8735L4.47855 4.75218ZM4.83211 4.39862L4.47855 4.75218L6.59987 6.8735L6.95343 6.51994L4.83211 4.39862ZM9.78185 4.39862C8.41502 3.03179 6.19894 3.03179 4.83211 4.39862L6.95343 6.51994C7.14869 6.32468 7.46527 6.32468 7.66053 6.51994L9.78185 4.39862ZM10.2047 4.82151L9.78185 4.39862L7.66053 6.51994L8.08342 6.94283L10.2047 4.82151ZM9.25013 4.21983C8.99703 4.30929 8.74965 4.41071 8.50868 4.52339L9.77947 7.24094C9.93246 7.1694 10.0894 7.10507 10.2499 7.04835L9.25013 4.21983ZM8.25 5V5.63409H11.25V5H8.25Z" fill="#505050" mask="url(#path-1-inside-1_3243_70532)"/>
<circle cx="12" cy="12" r="3.25" stroke="white" stroke-width="1.5"/>
</svg>
