<svg width="132" height="29" viewBox="0 0 132 29" fill="none" xmlns="http://www.w3.org/2000/svg">
<path d="M32.0716 16.316V8.46911H35.2173V16.316C35.2173 18.563 36.4617 20.0667 38.5185 20.0667C40.5753 20.0667 41.8198 18.563 41.8198 16.316V8.46911H44.9655V16.316C44.9655 20.3086 42.3901 22.9012 38.5185 22.9012C34.6469 22.9012 32.0716 20.3086 32.0716 16.316ZM47.2835 22.5556V8.46911H49.9107L56.9453 16.9383V8.29627H60.091V22.3827H57.4638L50.4292 13.9136V22.5556H47.2835ZM62.5758 8.46911H65.7215V22.5556H62.5758V8.46911ZM78.3591 8.46911H81.6603L76.0949 22.5556H72.7072L67.1418 8.46911H70.7023L74.5393 18.8395L78.3591 8.46911ZM89.2393 22.9012C84.8665 22.9012 81.6344 19.7728 81.6344 15.5037C81.6344 11.2346 84.8665 8.10615 89.2393 8.10615C93.6122 8.10615 96.8443 11.2346 96.8443 15.5037C96.8443 19.7728 93.6122 22.9012 89.2393 22.9012ZM89.2393 20.0667C91.7974 20.0667 93.6986 18.1481 93.6986 15.5037C93.6986 12.842 91.7974 10.9407 89.2393 10.9407C86.6813 10.9407 84.7801 12.842 84.7801 15.5037C84.7801 18.1481 86.6813 20.0667 89.2393 20.0667ZM98.7135 8.46911H101.859V22.5556H98.7135V8.46911ZM111.265 22.9012C106.926 22.9012 103.729 19.7728 103.729 15.5037C103.729 11.2346 106.926 8.10615 111.265 8.10615C115.136 8.10615 117.729 10.4395 118.299 13.4123H115.119C114.791 12.0642 113.356 10.9926 111.334 10.9926C108.776 10.9926 106.875 12.8765 106.875 15.5037C106.875 18.1136 108.776 20.0148 111.334 20.0148C113.356 20.0148 115.015 18.6839 115.257 17.4049H118.437C118.005 20.2395 115.171 22.9012 111.265 22.9012ZM120.251 22.5556V8.46911H130.725V11.2H123.397V14.0691H130.12V16.8H123.397V19.8247H130.881V22.5556H120.251Z" fill="black"/>
<circle cx="2.92524" cy="17.2812" r="2.92524" fill="#00E1C6"/>
<path d="M9 12.7839C9.51826 13.6233 9.94101 15.1322 9.89796 16.599C9.84834 18.2893 9.27981 19.9239 9.16326 20.4141C8.94559 21.3297 9.32653 22.754 10.1796 23.7205C10.4286 24.1783 11.4711 24.6231 12.624 24.0607C13.7347 23.4153 15.2334 20.5791 14.8367 16.243C14.4401 11.9069 13.2449 10.5618 13.2449 8.56195C13.2449 6.98505 14.4286 5.45071 16.1429 6.12029C17.5621 6.67462 19.4082 10.8228 19.4082 16.243C19.4082 20.3653 18.8035 23.0275 18.8035 24.0607C18.8035 25.0939 19.2085 27.422 21.489 26.9335C24.3397 26.3227 25 20.3653 25 16.243C25 12.7654 24.7378 5.74062 21.0816 2" stroke="#00E1C6" stroke-width="3.02611" stroke-linecap="round" stroke-linejoin="round"/>
</svg>
