<svg width="300" height="250" viewBox="0 0 300 250" fill="none" xmlns="http://www.w3.org/2000/svg">
<rect x="158.647" y="177.96" width="9.65685" height="36.8894" rx="1.60947" transform="rotate(-31.7832 158.647 177.96)" fill="#111111"/>
<rect x="179.19" y="212.447" width="9.65685" height="28.6435" rx="1.60947" transform="rotate(-113.451 179.19 212.447)" fill="#111111"/>
<path d="M208.212 181.969C207.886 181.142 206.948 180.729 206.154 181.13C202.9 182.772 200.263 185.385 198.71 188.543C196.93 192.164 196.721 196.207 198.129 199.781C199.537 203.355 202.448 206.169 206.219 207.602C209.509 208.853 213.219 208.965 216.719 207.946C217.572 207.698 217.977 206.756 217.652 205.929L212.932 193.949L208.212 181.969Z" fill="#111111"/>
<rect width="9.65685" height="36.8894" rx="1.60947" transform="matrix(-0.998713 -0.0507276 -0.0507276 0.998713 139.373 159.014)" fill="#111111"/>
<rect width="9.65685" height="28.6435" rx="1.60947" transform="matrix(-0.0945336 -0.995522 -0.995522 0.0945336 138.052 199.131)" fill="#111111"/>
<path d="M97.9291 186.455C97.8151 185.574 98.4378 184.759 99.3261 184.726C102.968 184.593 106.539 185.607 109.424 187.623C112.732 189.934 114.867 193.373 115.36 197.183C115.853 200.993 114.663 204.862 112.053 207.939C109.776 210.623 106.581 212.512 103.024 213.31C102.157 213.505 101.348 212.875 101.233 211.994L99.5813 199.225L97.9291 186.455Z" fill="#111111"/>
<path d="M97.6953 92.213V178.539H208.749V92.213L153.222 65.0712L97.6953 92.213Z" fill="#BFD0FD"/>
<path d="M200.703 131.059C221.146 80.0703 211.322 52.7059 202.513 43.6947C201.707 42.8706 201.811 41.448 202.812 40.876L211.165 36.1" stroke="#111111" stroke-width="4.8" stroke-linecap="round"/>
<path d="M96.0938 131.06C76.9427 81.9183 85.0921 54.6989 93.375 44.6922C94.2855 43.5923 93.6983 41.6861 92.2822 41.5031L81.6085 40.1244" stroke="#111111" stroke-width="4.8" stroke-linecap="round"/>
<path d="M176.696 34.589L150.564 34.4737C150.235 34.4723 150.11 34.9025 150.389 35.0775L172.515 48.981C172.567 49.0137 172.628 49.031 172.689 49.0311L198.521 49.0593C198.849 49.0597 198.973 48.6314 198.697 48.4562L176.87 34.6397C176.818 34.6069 176.758 34.5893 176.696 34.589Z" fill="#111111"/>
<path d="M154.219 50.6857L156.377 41.7666C156.438 41.5131 156.731 41.3959 156.95 41.5373L171.906 51.1858C171.968 51.2263 172.042 51.2474 172.117 51.2462L189.925 50.9774C190.179 50.9736 190.365 51.2172 190.294 51.4619L187.701 60.3877C187.662 60.5239 187.547 60.6271 187.408 60.6535C171.459 63.6742 158.813 55.6032 154.312 51.0327C154.221 50.9405 154.189 50.8115 154.219 50.6857Z" fill="#111111"/>
<path d="M151.533 39.5568L149.177 47.6676" stroke="#111111" stroke-width="1.96421" stroke-linecap="round"/>
<circle cx="148.786" cy="48.989" r="1.96421" transform="rotate(16.1982 148.786 48.989)" fill="#111111"/>
<path d="M147.915 49.4251C148.354 48.9408 149.159 49.1745 149.27 49.819L150.237 55.3949C150.337 55.9673 149.802 56.4457 149.244 56.2837L144.473 54.8978C143.915 54.7357 143.72 54.0452 144.111 53.6151L147.915 49.4251Z" fill="#111111"/>
<path d="M45.534 163.248C43.1933 176.829 56.262 191.782 63.089 197.561L28.6292 209.118C23.1676 209.118 16.6008 185.28 14 173.361L45.534 163.248Z" fill="#EAF0FE"/>
<path d="M24.4724 188.195L39.7624 183.367" stroke="#BFD0FD" stroke-width="2.41421" stroke-linecap="round"/>
<path d="M26.8892 193.829L42.1792 189" stroke="#BFD0FD" stroke-width="2.41421" stroke-linecap="round"/>
<path d="M29.298 199.462L44.588 194.634" stroke="#BFD0FD" stroke-width="2.41421" stroke-linecap="round"/>
<path d="M237.065 59.4385C234.724 73.0189 247.793 87.9718 254.62 93.7507L220.16 105.309C214.699 105.309 208.132 81.4705 205.531 69.5516L237.065 59.4385Z" fill="#EAF0FE"/>
<path d="M217.619 75.5333L232.909 70.7048" stroke="#BFD0FD" stroke-width="2.41421" stroke-linecap="round"/>
<path d="M220.036 81.1659L235.326 76.3375" stroke="#BFD0FD" stroke-width="2.41421" stroke-linecap="round"/>
<path d="M222.445 86.8L237.735 81.9716" stroke="#BFD0FD" stroke-width="2.41421" stroke-linecap="round"/>
<path d="M47.6722 108.527C50.0129 122.107 36.9441 137.06 30.1172 142.839L64.577 154.397C70.0386 154.397 76.6054 130.559 79.2062 118.64L47.6722 108.527Z" fill="#EAF0FE"/>
<path d="M55.4247 122.037L70.5358 127.399" stroke="#BFD0FD" stroke-width="2.41421" stroke-linecap="round"/>
<path d="M53.9585 127.987L69.0696 133.349" stroke="#BFD0FD" stroke-width="2.41421" stroke-linecap="round"/>
<path d="M52.4842 133.937L67.5953 139.299" stroke="#BFD0FD" stroke-width="2.41421" stroke-linecap="round"/>
<path d="M253.672 107.723C256.013 121.303 242.944 136.256 236.117 142.035L270.577 153.593C276.039 153.593 282.605 129.755 285.206 117.836L253.672 107.723Z" fill="#EAF0FE"/>
<path d="M258.193 118.818L273.304 124.18" stroke="#BFD0FD" stroke-width="2.41421" stroke-linecap="round"/>
<path d="M256.727 124.768L271.838 130.131" stroke="#BFD0FD" stroke-width="2.41421" stroke-linecap="round"/>
<path d="M255.252 130.718L270.364 136.08" stroke="#BFD0FD" stroke-width="2.41421" stroke-linecap="round"/>
<path d="M155.5 101.248L145 106.248L155.5 109.248" stroke="black" stroke-width="4" stroke-linecap="round" stroke-linejoin="round"/>
<path d="M117.504 110.748L128.009 106.765L118.5 102.748" stroke="black" stroke-width="4" stroke-linecap="round" stroke-linejoin="round"/>
<path d="M151 120.248H123C123.003 125.248 129.992 131.248 136.997 131.248C143.999 131.248 151 125.248 151 120.248Z" fill="#E0E8FE" stroke="black" stroke-width="4" stroke-linecap="round" stroke-linejoin="round"/>
</svg>
