<svg width="250" height="181" viewBox="0 0 250 181" fill="none" xmlns="http://www.w3.org/2000/svg">
<rect x="133.339" y="138.934" width="8.90218" height="34.0066" rx="1.4837" transform="rotate(-31.7832 133.339 138.934)" fill="black"/>
<rect x="152.279" y="170.726" width="8.90218" height="26.4051" rx="1.4837" transform="rotate(-113.451 152.279 170.726)" fill="black"/>
<path d="M179.026 142.63C178.725 141.868 177.86 141.487 177.128 141.856C174.129 143.37 171.698 145.779 170.266 148.69C168.625 152.028 168.433 155.755 169.731 159.05C171.029 162.345 173.711 164.938 177.189 166.26C180.221 167.413 183.642 167.516 186.868 166.577C187.654 166.348 188.028 165.479 187.727 164.717L183.377 153.674L179.026 142.63Z" fill="black"/>
<rect width="8.90218" height="34.0066" rx="1.4837" transform="matrix(-0.998713 -0.0507276 -0.0507276 0.998713 115.575 121.469)" fill="black"/>
<rect width="8.90218" height="26.4051" rx="1.4837" transform="matrix(-0.0945336 -0.995522 -0.995522 0.0945336 114.353 158.451)" fill="black"/>
<path d="M77.3593 146.766C77.2542 145.953 77.8282 145.202 78.6471 145.172C82.0047 145.049 85.2965 145.984 87.956 147.842C91.0051 149.973 92.9734 153.143 93.4278 156.655C93.8822 160.168 92.7856 163.734 90.3791 166.571C88.2801 169.045 85.3347 170.787 82.0564 171.522C81.2569 171.702 80.5105 171.121 80.4054 170.309L78.8823 158.537L77.3593 146.766Z" fill="black"/>
<path d="M77.1512 59.8879V139.468H179.526V59.8879L128.339 34.8672L77.1512 59.8879Z" fill="#BFD0FD"/>
<path d="M98.6616 86.0535C103.538 94.4507 116.004 106.207 126.852 86.0535" stroke="black" stroke-width="3.70924" stroke-linecap="round" stroke-linejoin="round"/>
<circle cx="100.894" cy="73.4426" r="3.70924" fill="black"/>
<circle cx="124.635" cy="73.4426" r="3.70924" fill="black"/>
<path d="M172.108 95.6984C190.954 48.6945 181.897 23.4685 173.776 15.1615C173.034 14.4018 173.13 13.0904 174.052 12.5631L181.752 8.16028" stroke="black" stroke-width="4.45109" stroke-linecap="round"/>
<path d="M75.6741 95.699C58.0197 50.3979 65.5322 25.3057 73.1679 16.081C74.0072 15.067 73.4659 13.3097 72.1604 13.1411L62.3209 11.8701" stroke="black" stroke-width="4.45109" stroke-linecap="round"/>
<path d="M149.97 6.76742L125.88 6.66113C125.577 6.6598 125.461 7.05642 125.718 7.21769L146.116 20.0347C146.163 20.0648 146.219 20.0808 146.276 20.0809L170.089 20.1069C170.391 20.1072 170.506 19.7124 170.251 19.5509L150.129 6.81415C150.082 6.78386 150.026 6.76767 149.97 6.76742Z" fill="#111111"/>
<path d="M129.133 21.2693L131.53 13.0155C131.595 12.7945 131.851 12.695 132.048 12.8149L145.785 21.2002C145.838 21.2326 145.898 21.2502 145.961 21.2513L162.052 21.531C162.282 21.535 162.446 21.7565 162.381 21.9775L159.987 30.2209C159.95 30.3465 159.845 30.4416 159.717 30.4659C145.022 33.249 133.37 25.819 129.214 21.6043C129.126 21.5153 129.098 21.3893 129.133 21.2693Z" fill="#111111"/>
<path d="M128.195 11.3469L126.271 17.9699" stroke="#111111" stroke-width="1.6039" stroke-linecap="round"/>
<circle cx="125.964" cy="19.0483" r="1.6039" transform="rotate(16.1982 125.964 19.0483)" fill="#111111"/>
<path d="M125.251 19.4047C125.61 19.0092 126.267 19.2 126.359 19.7263L127.148 24.2794C127.229 24.7467 126.793 25.1374 126.337 25.0051L122.441 23.8734C121.986 23.7411 121.826 23.1773 122.145 22.8261L125.251 19.4047Z" fill="#111111"/>
<path d="M29.0696 125.372C26.9119 137.891 38.9593 151.676 45.2527 157.003L13.4859 167.658C8.45116 167.658 2.39748 145.682 -2.28882e-05 134.695L29.0696 125.372Z" fill="#EAF0FE"/>
<path d="M9.64691 148.37L23.742 143.918" stroke="#BFD0FD" stroke-width="2.22555" stroke-linecap="round"/>
<path d="M11.8708 153.562L25.966 149.111" stroke="#BFD0FD" stroke-width="2.22555" stroke-linecap="round"/>
<path d="M14.0948 158.756L28.1899 154.305" stroke="#BFD0FD" stroke-width="2.22555" stroke-linecap="round"/>
<path d="M205.623 29.6748C203.465 42.1939 215.512 55.9783 221.806 61.3056L190.039 71.9602C185.004 71.9602 178.951 49.9851 176.553 38.9976L205.623 29.6748Z" fill="#EAF0FE"/>
<path d="M187.685 44.512L201.78 40.0609" stroke="#BFD0FD" stroke-width="2.22555" stroke-linecap="round"/>
<path d="M189.909 49.7046L204.004 45.2535" stroke="#BFD0FD" stroke-width="2.22555" stroke-linecap="round"/>
<path d="M192.133 54.8984L206.228 50.4473" stroke="#BFD0FD" stroke-width="2.22555" stroke-linecap="round"/>
<path d="M31.0327 74.9274C33.1904 87.4465 21.143 101.231 14.8495 106.558L46.6164 117.213C51.6511 117.213 57.7048 95.2377 60.1023 84.2501L31.0327 74.9274Z" fill="#EAF0FE"/>
<path d="M38.182 87.3816L52.1122 92.3247" stroke="#BFD0FD" stroke-width="2.22555" stroke-linecap="round"/>
<path d="M36.8279 92.8666L50.7581 97.8097" stroke="#BFD0FD" stroke-width="2.22555" stroke-linecap="round"/>
<path d="M35.4739 98.352L49.4041 103.295" stroke="#BFD0FD" stroke-width="2.22555" stroke-linecap="round"/>
<path d="M220.938 74.1852C223.096 86.7043 211.048 100.489 204.755 105.816L236.522 116.471C241.556 116.471 247.61 94.4955 250.008 83.5079L220.938 74.1852Z" fill="#EAF0FE"/>
<path d="M225.105 84.4136L239.036 89.3567" stroke="#BFD0FD" stroke-width="2.22555" stroke-linecap="round"/>
<path d="M223.751 89.8985L237.681 94.8417" stroke="#BFD0FD" stroke-width="2.22555" stroke-linecap="round"/>
<path d="M222.397 95.3835L236.327 100.327" stroke="#BFD0FD" stroke-width="2.22555" stroke-linecap="round"/>
</svg>
