<svg width="300" height="300" viewBox="0 0 300 300" fill="none" xmlns="http://www.w3.org/2000/svg">
<path d="M89.5474 117.34V189.002L206.896 170.719V117.34L148.222 88.6602L89.5474 117.34Z" fill="#BFD0FD"/>
<path d="M123.468 76.106L103.376 92.8151C103.123 93.0253 103.304 93.4353 103.63 93.3903L129.517 89.8182C129.577 89.8099 129.635 89.7845 129.682 89.7451L149.489 73.162C149.74 72.9516 149.56 72.5436 149.235 72.5873L123.634 76.0334C123.573 76.0416 123.515 76.0668 123.468 76.106Z" fill="#111111"/>
<path d="M116.597 102.885L112.516 94.6659C112.4 94.4323 112.549 94.1541 112.808 94.1216L130.466 91.8996C130.541 91.8903 130.61 91.8592 130.667 91.8103L144.136 80.1576C144.329 79.9909 144.628 80.0581 144.73 80.2912L148.481 88.7955C148.539 88.9252 148.518 89.0777 148.428 89.1875C138.152 101.754 123.276 103.699 116.89 103.092C116.761 103.079 116.654 103.001 116.597 102.885Z" fill="#111111"/>
<path d="M107.386 96.0859L110.794 103.814" stroke="#111111" stroke-width="1.96421" stroke-linecap="round"/>
<circle cx="111.344" cy="105.078" r="1.96421" transform="rotate(-23.8018 111.344 105.078)" fill="#111111"/>
<path d="M110.957 105.972C110.982 105.318 111.749 104.98 112.249 105.402L116.574 109.052C117.018 109.427 116.915 110.137 116.384 110.371L111.838 112.376C111.307 112.611 110.714 112.207 110.736 111.627L110.957 105.972Z" fill="#111111"/>
<path d="M132 133C137.363 139.792 156.5 139.5 163 133" stroke="#111111" stroke-width="4.02369" stroke-linecap="round" stroke-linejoin="round"/>
<circle cx="134.461" cy="119.668" r="4.02369" fill="#111111"/>
<circle cx="160.217" cy="119.668" r="4.02369" fill="#111111"/>
<path d="M227.947 155.055L71.0677 164.972C70.4891 165.008 70.0614 165.525 70.134 166.101L78.8141 234.863C78.879 235.378 79.325 235.758 79.8435 235.742L228.043 230.963C228.585 230.945 229.016 230.501 229.016 229.958V156.058C229.016 155.478 228.526 155.019 227.947 155.055Z" fill="#2653C7"/>
<path d="M88.811 142.232C77.3312 154.562 68.3175 182.198 124.101 194.103L119.425 203.032" stroke="#111111" stroke-width="4.8" stroke-linecap="round" stroke-linejoin="round"/>
<path d="M207.752 139.681C221.499 120.69 234.113 85.9391 174.588 98.8644L180.541 86.1094" stroke="#111111" stroke-width="4.8" stroke-linecap="round" stroke-linejoin="round"/>
<path d="M127.836 179.734L164.494 173.695L166.102 214.575L127.836 223.866V179.734Z" fill="#BFD0FD"/>
<path d="M133.781 207.709L157.591 200.906" stroke="white" stroke-width="3.01498" stroke-linecap="round"/>
<path d="M133.781 199.206L157.591 192.403" stroke="white" stroke-width="3.01498" stroke-linecap="round"/>
<path d="M133.781 190.702L157.591 183.899" stroke="white" stroke-width="3.01498" stroke-linecap="round"/>
</svg>
