<svg width="210" height="231" viewBox="0 0 210 231" fill="none" xmlns="http://www.w3.org/2000/svg">
<rect x="80" y="173.12" width="10" height="32.932" rx="1" fill="black"/>
<path d="M99.2499 214.035C100.216 214.035 101.009 213.249 100.918 212.287C100.553 208.43 98.9881 204.806 96.4602 202.039C93.5533 198.857 89.6109 197.07 85.5 197.07C81.3891 197.07 77.4467 198.857 74.5398 202.039C72.0119 204.806 70.4473 208.43 70.0824 212.287C69.9914 213.249 70.7836 214.035 71.7501 214.035L85.5 214.035H99.2499Z" fill="black"/>
<rect x="121" y="173.12" width="10" height="32.932" rx="1" fill="black"/>
<path d="M140.25 214.035C141.216 214.035 142.009 213.249 141.918 212.287C141.553 208.43 139.988 204.806 137.46 202.039C134.553 198.857 130.611 197.07 126.5 197.07C122.389 197.07 118.447 198.857 115.54 202.039C113.012 204.806 111.447 208.43 111.082 212.287C110.991 213.249 111.784 214.035 112.75 214.035L126.5 214.035H140.25Z" fill="black"/>
<path d="M45 81.3089V175.115H165V81.3089L105 52.3687L45 81.3089Z" fill="#BFD0FD"/>
<path d="M89 99.272C94.7526 109.062 109.204 122.768 122 99.272" stroke="black" stroke-width="4" stroke-linecap="round" stroke-linejoin="round"/>
<ellipse cx="92" cy="83.3047" rx="4" ry="3.99175" fill="black"/>
<ellipse cx="120" cy="83.3047" rx="4" ry="3.99175" fill="black"/>
<path d="M43 105.26C12.3169 120.848 -30.5376 148.066 41.1774 134.548C41.9455 134.403 42.6467 135.14 42.3717 135.872L37 150.167" stroke="black" stroke-width="4" stroke-linecap="round"/>
<path d="M167 103.264C197.683 118.852 240.538 146.07 168.823 132.551C168.055 132.407 167.353 133.144 167.628 133.876L173 148.171" stroke="black" stroke-width="4" stroke-linecap="round"/>
<path d="M77.9482 38.6856L56.6319 58.4845L85.212 52.9123L106.528 33.1134L77.9482 38.6856Z" fill="#111111"/>
<path d="M70.9707 67.1314L67 59.3545L84.8029 54.6559L99.9672 42.5915L103.938 50.3684C93.1953 64.4593 77.7497 67.2797 70.9707 67.1314Z" fill="#111111"/>
<path d="M63 60.3525L66.6319 67.4659" stroke="#111111" stroke-linecap="round"/>
<ellipse cx="1.49936" cy="1.49755" rx="1.49936" ry="1.49755" transform="matrix(0.891385 -0.453247 0.454735 0.890627 64 68.3359)" fill="#111111"/>
<path d="M66.564 68.5193L72.715 72.9518L66.5419 76.0906L66.564 68.5193Z" fill="#111111"/>
<path d="M160.31 10.4284L153.115 42.4373C152.922 43.2965 152.063 43.8312 151.207 43.6251L146.236 42.4285C145.5 42.2512 144.993 41.5751 145.03 40.8183L146.526 10.006C146.566 9.16541 147.26 8.50488 148.101 8.50488H158.771C159.781 8.50488 160.532 9.4422 160.31 10.4284Z" fill="black"/>
<circle cx="4.33829" cy="4.33829" r="4.33829" transform="matrix(-1 0 0 1 151.274 45.5776)" fill="black"/>
<path d="M123.241 1.57747L129.141 27.8277C129.3 28.5323 130.004 28.9708 130.706 28.8017L134.782 27.8204C135.386 27.675 135.802 27.1206 135.772 26.4999L134.545 1.23101C134.512 0.541695 133.943 0 133.253 0H124.503C123.674 0 123.059 0.768686 123.241 1.57747Z" fill="black"/>
<circle cx="134.202" cy="33.9616" r="3.55779" fill="black"/>
</svg>
