<svg width="96" height="103" viewBox="0 0 96 103" fill="none" xmlns="http://www.w3.org/2000/svg">
<path d="M26.2392 32.6124C28.0831 34.7618 29.889 40.2311 29.889 43.0791C29.889 47.4102 28.5396 50.6845 28.125 51.9397C27.7103 53.1949 26.2392 57.2139 30.4361 60.6159C31.8882 61.6442 35.0307 62.9269 39.1324 61.4871C43.0839 59.8345 48.4157 52.5722 47.0047 41.4694C45.5936 30.3666 41.3414 26.9227 41.3414 21.8018C41.3414 17.7641 45.5525 13.8354 51.6515 15.5499C56.7006 16.9693 63.2685 27.5909 63.2685 41.4694C63.2685 52.0247 61.1172 58.8415 61.1172 61.4871C61.1172 64.1327 62.558 70.0938 70.6715 68.8428C80.8133 67.2791 83.1627 52.0247 83.1626 41.4694C83.1625 32.5651 82.2299 14.5777 69.2222 4.99974" stroke="#00E1C6" stroke-width="9.11584" stroke-linecap="round" stroke-linejoin="round"/>
<circle cx="10.2017" cy="44.666" r="7.16931" fill="#00E1C6" stroke="#00E1C6" stroke-width="0.169211"/>
<path d="M1.10875 91.8059V84.3429H4.10054V91.8059C4.10054 93.9429 5.2841 95.3731 7.24026 95.3731C9.19643 95.3731 10.38 93.9429 10.38 91.8059V84.3429H13.3718V91.8059C13.3718 95.6032 10.9225 98.069 7.24026 98.069C3.55807 98.069 1.10875 95.6032 1.10875 91.8059ZM15.5764 97.7402V84.3429H18.0751L24.7655 92.3977V84.1785H27.7573V97.5758H25.2586L18.5682 89.521V97.7402H15.5764ZM30.1205 84.3429H33.1123V97.7402H30.1205V84.3429ZM45.1316 84.3429H48.2713L42.9781 97.7402H39.7562L34.4631 84.3429H37.8494L41.4987 94.2059L45.1316 84.3429ZM55.4795 98.069C51.3206 98.069 48.2466 95.0936 48.2466 91.0333C48.2466 86.9731 51.3206 83.9977 55.4795 83.9977C59.6384 83.9977 62.7124 86.9731 62.7124 91.0333C62.7124 95.0936 59.6384 98.069 55.4795 98.069ZM55.4795 95.3731C57.9124 95.3731 59.7206 93.5484 59.7206 91.0333C59.7206 88.5018 57.9124 86.6936 55.4795 86.6936C53.0466 86.6936 51.2384 88.5018 51.2384 91.0333C51.2384 93.5484 53.0466 95.3731 55.4795 95.3731ZM64.4902 84.3429H67.482V97.7402H64.4902V84.3429ZM76.4272 98.069C72.3012 98.069 69.2601 95.0936 69.2601 91.0333C69.2601 86.9731 72.3012 83.9977 76.4272 83.9977C80.1094 83.9977 82.5752 86.2169 83.1177 89.0443H80.093C79.7807 87.7621 78.4163 86.7429 76.493 86.7429C74.0601 86.7429 72.2519 88.5347 72.2519 91.0333C72.2519 93.5155 74.0601 95.3238 76.493 95.3238C78.4163 95.3238 79.9944 94.058 80.2245 92.8416H83.2492C82.8382 95.5375 80.1423 98.069 76.4272 98.069ZM84.9739 97.7402V84.3429H94.9356V86.9402H87.9657V89.669H94.3602V92.2662H87.9657V95.1429H95.0835V97.7402H84.9739Z" fill="#111111"/>
</svg>
