<svg width="16" height="16" viewBox="0 0 16 16" fill="none" xmlns="http://www.w3.org/2000/svg">
<path d="M2 6.66613V13.333C2 13.5098 2.07023 13.6793 2.19523 13.8043C2.32024 13.9293 2.48978 13.9996 2.66656 13.9996H13.3334C13.5102 13.9996 13.6798 13.9293 13.8048 13.8043C13.9298 13.6793 14 13.5098 14 13.333V6.66613M2 6.66613H14M2 6.66613V3.99957C2 3.82279 2.07023 3.65324 2.19523 3.52824C2.32024 3.40323 2.48978 3.33301 2.66656 3.33301H13.3334C13.5102 3.33301 13.6798 3.40323 13.8048 3.52824C13.9298 3.65324 14 3.82279 14 3.99957V6.66613" stroke="#008777" stroke-linecap="round" stroke-linejoin="round"/>
<path d="M10.6666 2V4.66656M5.3335 2V4.66656" stroke="#008777" stroke-linecap="round" stroke-linejoin="round"/>
</svg>
