<svg width="375" height="812" viewBox="0 0 375 812" fill="none" xmlns="http://www.w3.org/2000/svg">
<rect width="375" height="812" fill="white"/>
<path d="M157.504 380.41C160.069 383.4 162.581 391.009 162.581 394.971C162.581 400.996 160.704 405.551 160.127 407.297C159.551 409.043 157.504 414.634 163.343 419.367C165.363 420.798 169.734 422.582 175.44 420.579C180.937 418.28 188.355 408.177 186.392 392.732C184.429 377.286 178.513 372.495 178.513 365.371C178.513 359.754 184.372 354.289 192.856 356.674C199.88 358.649 209.017 373.425 209.017 392.732C209.017 407.416 206.024 416.899 206.024 420.579C206.024 424.259 208.029 432.552 219.315 430.812C233.424 428.636 236.693 407.416 236.692 392.732C236.692 380.344 235.395 355.322 217.299 341.997" stroke="#00E1C6" stroke-width="12.6814" stroke-linecap="round" stroke-linejoin="round"/>
<circle cx="135.192" cy="397.183" r="9.9735" fill="#00E1C6" stroke="#00E1C6" stroke-width="0.235396"/>
<path d="M122.768 462.502V452.12H126.93V462.502C126.93 465.475 128.576 467.464 131.298 467.464C134.019 467.464 135.665 465.475 135.665 462.502V452.12H139.827V462.502C139.827 467.784 136.42 471.215 131.298 471.215C126.175 471.215 122.768 467.784 122.768 462.502ZM142.894 470.757V452.12H146.37L155.678 463.325V451.891H159.84V470.529H156.364L147.056 459.323V470.757H142.894ZM163.127 452.12H167.289V470.757H163.127V452.12ZM184.01 452.12H188.377L181.014 470.757H176.532L169.168 452.12H173.879L178.956 465.841L184.01 452.12ZM198.405 471.215C192.619 471.215 188.343 467.076 188.343 461.427C188.343 455.779 192.619 451.64 198.405 451.64C204.191 451.64 208.467 455.779 208.467 461.427C208.467 467.076 204.191 471.215 198.405 471.215ZM198.405 467.464C201.79 467.464 204.305 464.926 204.305 461.427C204.305 457.906 201.79 455.39 198.405 455.39C195.021 455.39 192.505 457.906 192.505 461.427C192.505 464.926 195.021 467.464 198.405 467.464ZM210.94 452.12H215.102V470.757H210.94V452.12ZM227.546 471.215C221.806 471.215 217.576 467.076 217.576 461.427C217.576 455.779 221.806 451.64 227.546 451.64C232.669 451.64 236.099 454.727 236.853 458.66H232.646C232.211 456.876 230.313 455.459 227.638 455.459C224.253 455.459 221.738 457.951 221.738 461.427C221.738 464.88 224.253 467.396 227.638 467.396C230.313 467.396 232.509 465.635 232.829 463.943H237.036C236.465 467.693 232.714 471.215 227.546 471.215ZM239.436 470.757V452.12H253.294V455.733H243.598V459.529H252.493V463.142H243.598V467.144H253.5V470.757H239.436Z" fill="#111111"/>
</svg>
