<svg width="12" height="13" viewBox="0 0 12 13" fill="none" xmlns="http://www.w3.org/2000/svg">
<path d="M10.8164 3.82345C10.6593 3.45973 10.4328 3.13014 10.1496 2.85313C9.86617 2.57529 9.53199 2.35449 9.16523 2.20274C8.78494 2.04475 8.37704 1.96389 7.96523 1.96485C7.3875 1.96485 6.82383 2.12306 6.33398 2.42188C6.2168 2.49337 6.10547 2.57188 6 2.65743C5.89453 2.57188 5.7832 2.49337 5.66602 2.42188C5.17617 2.12306 4.6125 1.96485 4.03477 1.96485C3.61875 1.96485 3.21562 2.04454 2.83477 2.20274C2.4668 2.35509 2.13516 2.57423 1.85039 2.85313C1.56678 3.12983 1.34024 3.4595 1.18359 3.82345C1.0207 4.20196 0.9375 4.60391 0.9375 5.01759C0.9375 5.40782 1.01719 5.81446 1.17539 6.22813C1.30781 6.57384 1.49766 6.93243 1.74023 7.29454C2.12461 7.86759 2.65312 8.46524 3.30937 9.0711C4.39687 10.0754 5.47383 10.7691 5.51953 10.7973L5.79727 10.9754C5.92031 11.0539 6.07852 11.0539 6.20156 10.9754L6.4793 10.7973C6.525 10.768 7.60078 10.0754 8.68945 9.0711C9.3457 8.46524 9.87422 7.86759 10.2586 7.29454C10.5012 6.93243 10.6922 6.57384 10.8234 6.22813C10.9816 5.81446 11.0613 5.40782 11.0613 5.01759C11.0625 4.60391 10.9793 4.20196 10.8164 3.82345ZM6 10.0484C6 10.0484 1.82812 7.3754 1.82812 5.01759C1.82812 3.82345 2.81602 2.85548 4.03477 2.85548C4.89141 2.85548 5.63438 3.3336 6 4.03204C6.36562 3.3336 7.10859 2.85548 7.96523 2.85548C9.18398 2.85548 10.1719 3.82345 10.1719 5.01759C10.1719 7.3754 6 10.0484 6 10.0484Z" fill="#767676"/>
</svg>
